<svg width="385" height="259" viewBox="0 0 385 259" fill="none" xmlns="http://www.w3.org/2000/svg">
<path fill-rule="evenodd" clip-rule="evenodd" d="M23.0397 418.17C3.26073 380.995 -5.58233 338.489 4.50432 292.567C13.8776 249.89 42.9406 209.462 77.0599 172.219C109.785 136.498 152.195 130.513 195.306 104.8C250.555 71.847 309.471 -11.1056 362.932 1.71086C417.928 14.8952 398.314 90.6854 414.294 137.933C424.915 169.34 436.974 197.903 440.745 231.783C445.437 273.939 472.378 318.844 438.895 358.989C405.458 399.079 338.623 387.432 290.059 412.451C230.287 443.246 187.639 519.021 125.695 520.348C65.7048 521.632 45.9237 461.181 23.0397 418.17Z" fill="url(#paint0_linear_1_493)" fill-opacity="0.4"/>
<defs>
<linearGradient id="paint0_linear_1_493" x1="485.164" y1="276.652" x2="38.7656" y2="341.831" gradientUnits="userSpaceOnUse">
<stop stop-color="#9EE6F7" stop-opacity="0"/>
<stop offset="1" stop-color="#9EE6F7" stop-opacity="0.46"/>
</linearGradient>
</defs>
</svg>
