<svg width="281" height="367" viewBox="0 0 281 367" fill="none" xmlns="http://www.w3.org/2000/svg">
<path fill-rule="evenodd" clip-rule="evenodd" d="M59.7867 1.08213C101.896 1.16596 143.55 13.4071 179.293 43.9531C212.51 72.3397 234.462 117.03 251.219 164.678C267.293 210.379 252.576 250.602 254.927 300.743C257.94 365.002 303.318 456.069 266.811 497.173C229.255 539.457 171.664 486.428 122.464 478.245C89.758 472.804 58.8835 469.972 27.2275 457.325C-12.1614 441.588 -64.4639 444.176 -84.0816 395.721C-103.672 347.333 -61.8906 293.883 -61.0591 239.259C-60.0362 172.029 -106.754 98.693 -78.7202 43.4396C-51.5701 -10.0705 11.0671 0.985262 59.7867 1.08213Z" fill="url(#paint0_linear_1_497)" fill-opacity="0.4"/>
<defs>
<linearGradient id="paint0_linear_1_497" x1="-33.2834" y1="475.344" x2="119.695" y2="50.9413" gradientUnits="userSpaceOnUse">
<stop stop-color="#9EE6F7" stop-opacity="0"/>
<stop offset="1" stop-color="#9EE6F7" stop-opacity="0.46"/>
</linearGradient>
</defs>
</svg>
