<svg width="282" height="237" viewBox="0 0 282 237" fill="none" xmlns="http://www.w3.org/2000/svg">
<path opacity="0.5" fill-rule="evenodd" clip-rule="evenodd" d="M2.62215 341.153C-3.17628 300.037 2.0152 256.123 24.4812 213.097C45.359 173.112 82.4614 139.772 122.944 110.712C161.774 82.8399 205.124 66.9811 249.858 51.3149C307.187 31.2388 377.548 -17.8342 419.579 6.83164C462.817 32.2045 423.193 102.548 422.699 152.744C422.372 186.111 424.134 216.996 417.182 251.261C408.532 293.897 418.154 344.247 377.344 376.313C336.59 408.335 282.729 381.814 233.522 395.57C172.961 412.499 113.571 477.647 60.0053 465.024C8.12976 452.798 9.32928 388.724 2.62215 341.153Z" fill="url(#paint0_linear_1_494)" fill-opacity="0.6"/>
<defs>
<linearGradient id="paint0_linear_1_494" x1="441.815" y1="305.507" x2="44.6208" y2="237.159" gradientUnits="userSpaceOnUse">
<stop stop-color="#005AE2"/>
<stop offset="1" stop-color="#73E6FF" stop-opacity="0.38"/>
</linearGradient>
</defs>
</svg>
