<svg width="516" height="209" viewBox="0 0 516 209" fill="none" xmlns="http://www.w3.org/2000/svg">
<path fill-rule="evenodd" clip-rule="evenodd" d="M3.5001 239.647C13.7663 192.37 93.0447 98.0304 135.905 62.4265C175.736 29.3394 196.063 16.6752 253.5 4.93247C308.591 -6.3305 394.248 9.09582 451 13.9024C523.73 20.0626 627.641 -15.6477 664.879 31.4562C703.186 79.9114 629.853 136.712 608.799 190.75C594.803 226.673 584.172 260.924 562.353 294.597C535.203 336.495 525.469 395.616 466.435 410.451C407.484 425.265 357.688 370.404 296.683 361.358C221.599 350.224 128.141 391.798 73.0021 352.109C19.602 313.67 -8.37746 294.347 3.5001 239.647Z" fill="url(#paint0_linear_1_441)" fill-opacity="0.3"/>
<defs>
<linearGradient id="paint0_linear_1_441" x1="574.675" y1="354.148" x2="149.299" y2="97.4255" gradientUnits="userSpaceOnUse">
<stop stop-color="#9EE6F7" stop-opacity="0"/>
<stop offset="1" stop-color="#9EE6F7" stop-opacity="0.46"/>
</linearGradient>
</defs>
</svg>
