<svg width="332" height="99" viewBox="0 0 332 99" fill="none" xmlns="http://www.w3.org/2000/svg">
<path fill-rule="evenodd" clip-rule="evenodd" d="M30.1262 142.229C45.4543 103.639 71.7153 68.0614 112.543 41.8112C150.485 17.4169 199.23 6.83121 248.792 1.63813C296.329 -3.34239 341.843 4.35279 388.464 12.9006C448.211 23.8559 533.641 16.0758 557.937 58.322C582.93 101.78 513.666 143.262 488.375 186.624C471.564 215.448 457.797 243.151 434.786 269.474C406.153 302.228 389.573 350.734 338.238 358.377C286.973 366.009 253.319 316.292 203.76 303.869C142.764 288.579 58.9026 315.758 18.6215 278.26C-20.3881 241.945 12.3906 186.876 30.1262 142.229Z" fill="url(#paint0_linear_1_443)" fill-opacity="0.6"/>
<defs>
<linearGradient id="paint0_linear_1_443" x1="429.316" y1="328.8" x2="118.121" y2="72.6902" gradientUnits="userSpaceOnUse">
<stop stop-color="#005AE2"/>
<stop offset="1" stop-color="#73E6FF" stop-opacity="0.38"/>
</linearGradient>
</defs>
</svg>
