<svg width="421" height="273" viewBox="0 0 421 273" fill="none" xmlns="http://www.w3.org/2000/svg">
<path fill-rule="evenodd" clip-rule="evenodd" d="M43 192.107C-13.417 169.4 -91.4973 207.114 -122.5 165.197C-151.311 126.244 -160.612 44.6091 -156.682 0.194901C-152.913 -42.405 -129.881 -80.1686 -105.252 -118.689C-73.6885 -168.054 -65.0909 -244.326 6.63529 -255.235C80.4193 -266.456 128.261 -196.084 189.698 -163.545C230.539 -141.915 270.367 -123.208 305.807 -96.7871C349.903 -63.9117 421.468 -37.7091 420.926 8.84397C420.385 55.3315 334.746 72.5759 303.366 112.714C264.745 162.117 286.756 241.729 218.553 267.706C152.499 292.865 108.273 218.379 43 192.107Z" fill="url(#paint0_linear_1_445)" fill-opacity="0.3"/>
<defs>
<linearGradient id="paint0_linear_1_445" x1="396.928" y1="-77.634" x2="140.688" y2="285.345" gradientUnits="userSpaceOnUse">
<stop stop-color="#9EE6F7" stop-opacity="0"/>
<stop offset="1" stop-color="#9EE6F7" stop-opacity="0.46"/>
</linearGradient>
</defs>
</svg>
