<svg width="404" height="159" viewBox="0 0 404 159" fill="none" xmlns="http://www.w3.org/2000/svg">
<path fill-rule="evenodd" clip-rule="evenodd" d="M3.13513 209.119C4.36611 167.028 17.7374 125.722 49.2459 90.8247C78.5269 58.3933 123.799 37.6679 171.886 22.2144C218.008 7.39188 257.814 23.199 308.001 22.2145C372.318 20.9533 464.588 -21.9267 504.682 15.6869C545.927 54.3803 491.348 110.505 481.828 159.465C475.499 192.01 471.827 222.796 458.322 254.095C441.517 293.041 442.68 345.395 393.708 363.685C344.804 381.95 292.513 338.728 237.932 336.409C170.754 333.555 96.1727 378.258 41.7036 348.729C-11.047 320.131 1.71105 257.818 3.13513 209.119Z" fill="url(#paint0_linear_1_442)" fill-opacity="0.4"/>
<defs>
<linearGradient id="paint0_linear_1_442" x1="474.685" y1="315.075" x2="54.6079" y2="150.592" gradientUnits="userSpaceOnUse">
<stop stop-color="#9EE6F7" stop-opacity="0"/>
<stop offset="1" stop-color="#9EE6F7" stop-opacity="0.46"/>
</linearGradient>
</defs>
</svg>
