<svg width="525" height="523" viewBox="0 0 525 523" fill="none" xmlns="http://www.w3.org/2000/svg">
<path fill-rule="evenodd" clip-rule="evenodd" d="M167.5 249.99C123.721 187.016 11.8414 196.909 -8.00002 96.3815C-26.4387 2.96118 85.3641 24.3165 95.0001 -74.2939C104.243 -168.875 80.953 -168.022 107 -248.985C140.382 -352.742 181.646 -239.977 243 -248.985C306.114 -258.253 300.736 -480.809 356.14 -444.452C417.702 -404.052 330.381 -178.223 356.14 -111.441C388.191 -28.3452 531.325 -112.856 524.207 -8.72904C517.098 95.2545 443.239 115.46 411.333 198.597C372.063 300.919 379.01 483.922 318.434 527.433C259.769 569.57 218.149 322.85 167.5 249.99Z" fill="url(#paint0_linear_1_346)" fill-opacity="0.6"/>
<defs>
<linearGradient id="paint0_linear_1_346" x1="516.586" y1="-207.534" x2="23.891" y2="-6.55255" gradientUnits="userSpaceOnUse">
<stop stop-color="#005AE2"/>
<stop offset="1" stop-color="#73E6FF" stop-opacity="0.38"/>
</linearGradient>
</defs>
</svg>
