<svg width="516" height="279" viewBox="0 0 516 279" fill="none" xmlns="http://www.w3.org/2000/svg">
<path fill-rule="evenodd" clip-rule="evenodd" d="M3.50012 641.504C13.7663 514.506 93.0447 261.09 135.905 165.451C175.736 76.5716 196.063 42.5527 253.5 11.0093C308.591 -19.2455 394.248 22.1929 451 35.1045C523.73 51.6521 627.641 -44.2735 664.879 82.2577C703.186 212.419 629.853 364.999 608.799 510.157C594.803 606.651 584.171 698.658 562.353 789.11C535.203 901.657 525.469 1060.47 466.435 1100.32C407.484 1140.11 357.688 992.746 296.683 968.444C221.599 938.537 128.141 1050.21 73.0021 943.6C19.602 840.346 -8.37744 788.438 3.50012 641.504Z" fill="url(#paint0_linear_1_340)" fill-opacity="0.3"/>
<defs>
<linearGradient id="paint0_linear_1_340" x1="574.675" y1="949.077" x2="22.2479" y2="824.962" gradientUnits="userSpaceOnUse">
<stop stop-color="#9EE6F7" stop-opacity="0"/>
<stop offset="1" stop-color="#9EE6F7" stop-opacity="0.46"/>
</linearGradient>
</defs>
</svg>
