<svg width="404" height="147" viewBox="0 0 404 147" fill="none" xmlns="http://www.w3.org/2000/svg">
<path fill-rule="evenodd" clip-rule="evenodd" d="M3.13516 561.809C4.36613 448.743 17.7375 337.788 49.2459 244.045C78.5269 156.927 123.799 101.254 171.886 59.7428C218.008 19.9263 257.814 62.3878 308.001 59.743C372.318 56.3554 464.588 -58.8297 504.682 42.2087C545.927 146.147 491.348 296.911 481.828 428.427C475.499 515.85 471.827 598.548 458.322 682.625C441.517 787.242 442.68 927.875 393.708 977.007C344.804 1026.07 292.513 909.967 237.932 903.736C170.754 896.07 96.1727 1016.15 41.7036 936.83C-11.047 860.011 1.71107 692.625 3.13516 561.809Z" fill="url(#paint0_linear_1_341)" fill-opacity="0.4"/>
<defs>
<linearGradient id="paint0_linear_1_341" x1="474.685" y1="846.429" x2="0.283455" y2="777.278" gradientUnits="userSpaceOnUse">
<stop stop-color="#9EE6F7" stop-opacity="0"/>
<stop offset="1" stop-color="#9EE6F7" stop-opacity="0.46"/>
</linearGradient>
</defs>
</svg>
