<svg width="474" height="315" viewBox="0 0 474 315" fill="none" xmlns="http://www.w3.org/2000/svg">
<path fill-rule="evenodd" clip-rule="evenodd" d="M5.41612 512.549C-9.08266 466.393 13.0605 345.172 32.6593 293.012C50.8726 244.541 62.2578 223.471 106.338 184.821C148.618 147.749 230.67 118.723 282.352 94.7891C348.586 64.1164 421.166 -18.3736 476.847 4.10178C534.125 27.2218 498.554 112.888 507.029 170.26C512.664 208.399 520.393 243.419 518.117 283.479C515.285 333.323 536.112 389.504 492.176 431.632C448.302 473.7 377.87 450.706 320.393 473.064C249.652 500.582 189.055 582.989 121.497 575.821C56.0685 568.878 22.1911 565.95 5.41612 512.549Z" fill="url(#paint0_linear_1_492)" fill-opacity="0.3"/>
<defs>
<linearGradient id="paint0_linear_1_492" x1="558.318" y1="329.108" x2="61.63" y2="316.783" gradientUnits="userSpaceOnUse">
<stop stop-color="#9EE6F7" stop-opacity="0"/>
<stop offset="1" stop-color="#9EE6F7" stop-opacity="0.46"/>
</linearGradient>
</defs>
</svg>
