<svg width="326" height="481" viewBox="0 0 326 481" fill="none" xmlns="http://www.w3.org/2000/svg">
<path fill-rule="evenodd" clip-rule="evenodd" d="M76.21 2.95805C123.75 11.9324 220.214 88.6114 256.972 130.486C291.132 169.401 304.345 189.375 317.648 246.471C330.408 301.235 317.321 387.28 314.062 444.142C309.886 517.013 348.414 619.912 302.342 658.42C254.948 698.032 196.17 626.275 141.579 606.7C105.289 593.688 70.7602 583.994 36.5056 563.1C-6.11627 537.102 -65.4808 528.983 -81.9188 470.375C-98.3333 411.849 -44.8493 360.576 -37.468 299.348C-28.3839 223.988 -72.4886 131.697 -34.3162 75.498C2.6531 21.0705 21.2074 -7.42495 76.21 2.95805Z" fill="url(#paint0_linear_1_496)" fill-opacity="0.3"/>
<defs>
<linearGradient id="paint0_linear_1_496" x1="-22.6874" y1="577.041" x2="222.351" y2="144.828" gradientUnits="userSpaceOnUse">
<stop stop-color="#9EE6F7" stop-opacity="0"/>
<stop offset="1" stop-color="#9EE6F7" stop-opacity="0.46"/>
</linearGradient>
</defs>
</svg>
