<svg width="23" height="15" viewBox="0 0 23 15" fill="none" xmlns="http://www.w3.org/2000/svg">
<path id="Vector" d="M11.4531 14.3765C4.74423 14.3765 0 8.89144 0 7.18827C0 5.47596 4.71798 0 11.4508 0C18.2292 0 22.8936 5.47596 22.8936 7.18827C22.8936 8.89144 18.2372 14.3765 11.4508 14.3765H11.4531ZM11.4531 11.8617C14.0478 11.8617 16.1334 9.72933 16.1334 7.18827C16.1353 6.57384 16.0155 5.96511 15.7808 5.39727C15.5461 4.82944 15.2012 4.31375 14.766 3.88002C14.3307 3.4463 13.8139 3.10314 13.2452 2.87037C12.6766 2.63761 12.0675 2.51987 11.4531 2.52394C8.83893 2.52394 6.7522 4.57529 6.76133 7.18827C6.77046 9.72933 8.83893 11.8617 11.4531 11.8617ZM11.4531 8.89144C10.9994 8.89147 10.5641 8.71269 10.2414 8.39386C9.91873 8.07503 9.73474 7.64186 9.72933 7.18827C9.72933 6.25221 10.5056 5.47596 11.4508 5.47596C12.3868 5.47596 13.1722 6.25221 13.1722 7.18827C13.1722 8.1152 12.3868 8.89144 11.4508 8.89144H11.4531Z" fill="#005AE2"/>
</svg>
