<svg width="24" height="24" viewBox="0 0 24 24" fill="none" xmlns="http://www.w3.org/2000/svg">
<g id="i.fi-social-facebook">
<path id="Vector" d="M21.9706 1.4375C22.2831 1.4375 22.5663 1.55469 22.8202 1.78906C23.0741 2.02344 23.2011 2.29688 23.2011 2.60938V21.8281C23.2011 22.1406 23.0741 22.4141 22.8202 22.6484C22.5663 22.8828 22.2831 23 21.9706 23H16.4628V14.6797H19.2753L19.6855 11.3984H16.4628V9.28906C16.4628 8.23438 17.0097 7.70703 18.1034 7.70703H19.8026V4.83594C19.2167 4.71875 18.3769 4.66016 17.2831 4.66016C16.0331 4.66016 15.0273 5.04102 14.2655 5.80273C13.5038 6.56445 13.123 7.62891 13.123 8.99609V11.3984H10.3105V14.6797H13.123V23H2.75186C2.43936 23 2.16592 22.8828 1.93155 22.6484C1.69717 22.4141 1.57999 22.1406 1.57999 21.8281V2.60938C1.57999 2.29688 1.69717 2.02344 1.93155 1.78906C2.16592 1.55469 2.43936 1.4375 2.75186 1.4375H21.9706Z" fill="#141414"/>
</g>
</svg>
