<svg width="25" height="24" viewBox="0 0 25 24" fill="none" xmlns="http://www.w3.org/2000/svg">
<g id="link-2" clip-path="url(#clip0_1_203)">
<path id="Vector" d="M15.1 7H18.1C18.7566 7 19.4068 7.12933 20.0134 7.3806C20.6201 7.63188 21.1712 8.00017 21.6355 8.46447C22.0998 8.92876 22.4681 9.47996 22.7194 10.0866C22.9707 10.6932 23.1 11.3434 23.1 12C23.1 12.6566 22.9707 13.3068 22.7194 13.9134C22.4681 14.52 22.0998 15.0712 21.6355 15.5355C21.1712 15.9998 20.6201 16.3681 20.0134 16.6194C19.4068 16.8707 18.7566 17 18.1 17H15.1M9.10001 17H6.10001C5.4434 17 4.79322 16.8707 4.18659 16.6194C3.57996 16.3681 3.02877 15.9998 2.56447 15.5355C1.62679 14.5979 1.10001 13.3261 1.10001 12C1.10001 10.6739 1.62679 9.40215 2.56447 8.46447C3.50215 7.52678 4.77392 7 6.10001 7H9.10001" stroke="#141414" stroke-width="2" stroke-linecap="round" stroke-linejoin="round"/>
<path id="Vector_2" d="M8.10001 12H16.1" stroke="#005AE2" stroke-width="2" stroke-linecap="round" stroke-linejoin="round"/>
</g>
<defs>
<clipPath id="clip0_1_203">
<rect width="24" height="24" fill="white" transform="translate(0.100006)"/>
</clipPath>
</defs>
</svg>
