<svg width="24" height="24" viewBox="0 0 24 24" fill="none" xmlns="http://www.w3.org/2000/svg">
<g id="i.fi-social-linkedin">
<path id="Vector" d="M20.7005 1.4375C21.1302 1.4375 21.511 1.58398 21.843 1.87695C22.1751 2.16992 22.3411 2.53125 22.3411 2.96094V21.4766C22.3411 21.9062 22.1751 22.2676 21.843 22.5605C21.511 22.8535 21.1302 23 20.7005 23H2.30203C1.87234 23 1.50125 22.8535 1.18875 22.5605C0.876251 22.2676 0.720001 21.9062 0.720001 21.4766V2.96094C0.720001 2.53125 0.876251 2.16992 1.18875 1.87695C1.50125 1.58398 1.87234 1.4375 2.30203 1.4375H20.7005ZM7.10672 19.8359V9.52344H3.94266V19.8359H7.10672ZM5.52469 8.11719C6.0325 8.11719 6.47195 7.93164 6.84305 7.56055C7.21414 7.18945 7.39969 6.75 7.39969 6.24219C7.39969 5.73438 7.21414 5.29492 6.84305 4.92383C6.47195 4.55273 6.0325 4.36719 5.52469 4.36719C5.01688 4.36719 4.57742 4.55273 4.20633 4.92383C3.83524 5.29492 3.64969 5.73438 3.64969 6.24219C3.64969 6.78906 3.82547 7.23828 4.17703 7.58984C4.52859 7.94141 4.97781 8.11719 5.52469 8.11719ZM19.1184 19.8359V14.1523C19.1184 12.5898 18.8548 11.3887 18.3274 10.5488C17.8001 9.70898 16.7942 9.28906 15.3098 9.28906C13.8255 9.28906 12.8098 9.83594 12.263 10.9297H12.2044V9.52344H9.1575V19.8359H12.3216V14.7383C12.3216 12.9805 12.9661 12.1016 14.2552 12.1016C14.763 12.1016 15.1438 12.2676 15.3977 12.5996C15.6516 12.9316 15.7981 13.2441 15.8372 13.5371C15.8763 13.8301 15.8958 14.25 15.8958 14.7969V19.8359H19.1184Z" fill="#141414"/>
</g>
</svg>
