<svg width="24" height="24" viewBox="0 0 24 24" fill="none" xmlns="http://www.w3.org/2000/svg">
<g id="i.fi-social-twitter">
<path id="Vector" d="M23.0859 5.47656C22.3438 6.53125 21.5625 7.35156 20.7422 7.9375V8.52344C20.7422 11.9609 19.5215 15.0664 17.0801 17.8398C14.6387 20.6133 11.3672 22 7.26562 22C4.60938 22 2.1875 21.2969 0 19.8906C0.234375 19.9297 0.605469 19.9492 1.11328 19.9492C3.30078 19.9492 5.27344 19.2656 7.03125 17.8984C6.01562 17.8594 5.09766 17.5371 4.27734 16.9316C3.45703 16.3262 2.89062 15.5547 2.57812 14.6172C2.96875 14.6953 3.26172 14.7344 3.45703 14.7344C3.88672 14.7344 4.31641 14.6758 4.74609 14.5586C3.65234 14.3633 2.74414 13.8262 2.02148 12.9473C1.29883 12.0684 0.9375 11.0625 0.9375 9.92969V9.8125C1.71875 10.2422 2.42188 10.457 3.04688 10.457C1.67969 9.51953 0.996094 8.19141 0.996094 6.47266C0.996094 5.57422 1.19141 4.79297 1.58203 4.12891C4.12109 7.21484 7.38281 8.85547 11.3672 9.05078C11.2891 8.58203 11.25 8.23047 11.25 7.99609C11.25 6.66797 11.709 5.54492 12.627 4.62695C13.5449 3.70898 14.668 3.25 15.9961 3.25C17.4023 3.25 18.5547 3.73828 19.4531 4.71484C20.5469 4.48047 21.543 4.10938 22.4414 3.60156C22.0898 4.73438 21.4062 5.59375 20.3906 6.17969C21.2891 6.0625 22.1875 5.82812 23.0859 5.47656Z" fill="#141414"/>
</g>
</svg>
