<svg width="525" height="199" viewBox="0 0 525 199" fill="none" xmlns="http://www.w3.org/2000/svg">
<path fill-rule="evenodd" clip-rule="evenodd" d="M167.5 93.0639C123.721 69.6206 11.8413 73.3034 -8.00005 35.88C-26.4387 1.10235 85.3641 9.05234 95.0001 -27.6575C104.243 -62.8673 80.953 -62.5497 107 -92.69C140.382 -131.316 181.646 -89.3365 243 -92.69C306.114 -96.1401 300.736 -178.991 356.14 -165.456C417.702 -150.417 330.381 -66.3471 356.14 -41.4862C388.191 -10.5521 531.325 -42.0129 524.207 -3.24956C517.098 35.4605 443.239 42.9825 411.333 73.9319C372.062 112.023 379.01 180.15 318.434 196.348C259.769 212.034 218.149 120.188 167.5 93.0639Z" fill="url(#paint0_linear_1_447)" fill-opacity="0.6"/>
<defs>
<linearGradient id="paint0_linear_1_447" x1="516.586" y1="-77.2588" x2="255.452" y2="208.884" gradientUnits="userSpaceOnUse">
<stop stop-color="#005AE2"/>
<stop offset="1" stop-color="#73E6FF" stop-opacity="0.38"/>
</linearGradient>
</defs>
</svg>
