<svg width="451" height="240" viewBox="0 0 451 240" fill="none" xmlns="http://www.w3.org/2000/svg">
<path fill-rule="evenodd" clip-rule="evenodd" d="M130 156.975C77.1864 142.346 13.321 143.549 -20.5001 109.883C-51.9311 78.5958 -50.7569 74.6479 -54.5753 35.6263C-58.2382 -1.8013 -44.3437 -36.7734 -29.1826 -72.5491C-9.75197 -118.397 -14.6996 -185.578 45.9617 -201.606C108.364 -218.094 161.481 -161.191 220.268 -138.461C259.346 -123.351 297.068 -110.693 332.225 -90.9206C375.971 -66.3182 442.541 -50.0253 449.657 -9.45126C456.763 31.067 385.023 53.8784 364.249 91.678C338.681 138.202 370.818 205.501 315.679 234.327C262.279 262.243 191.104 173.9 130 156.975Z" fill="url(#paint0_linear_1_446)" fill-opacity="0.4"/>
<defs>
<linearGradient id="paint0_linear_1_446" x1="414.67" y1="-82.5464" x2="238.043" y2="250.013" gradientUnits="userSpaceOnUse">
<stop stop-color="#9EE6F7" stop-opacity="0"/>
<stop offset="1" stop-color="#9EE6F7" stop-opacity="0.46"/>
</linearGradient>
</defs>
</svg>
