<svg width="421" height="523" viewBox="0 0 421 523" fill="none" xmlns="http://www.w3.org/2000/svg">
<path fill-rule="evenodd" clip-rule="evenodd" d="M43 516.042C-13.417 455.046 -91.4972 556.354 -122.5 443.756C-151.311 339.118 -160.612 119.83 -156.682 0.523692C-152.913 -113.909 -129.881 -215.35 -105.252 -318.824C-73.6885 -451.43 -65.0909 -656.313 6.63529 -685.615C80.4193 -715.758 128.261 -526.723 189.698 -439.318C230.539 -381.215 270.367 -330.964 305.807 -259.991C349.903 -171.681 421.468 -101.295 420.927 23.7569C420.385 148.633 334.746 194.955 303.367 302.775C264.745 435.481 286.756 649.336 218.553 719.117C152.499 786.698 108.273 586.614 43 516.042Z" fill="url(#paint0_linear_1_344)" fill-opacity="0.3"/>
<defs>
<linearGradient id="paint0_linear_1_344" x1="396.928" y1="-208.541" x2="-205.863" y2="109.336" gradientUnits="userSpaceOnUse">
<stop stop-color="#9EE6F7" stop-opacity="0"/>
<stop offset="1" stop-color="#9EE6F7" stop-opacity="0.46"/>
</linearGradient>
</defs>
</svg>
