<svg width="80" height="80" viewBox="0 0 80 80" fill="none" xmlns="http://www.w3.org/2000/svg">
<g id="link-2">
<path id="Vector" d="M50 23.3333L60 23.3333C62.1887 23.3333 64.356 23.7643 66.3781 24.6019C68.4002 25.4395 70.2375 26.6672 71.7851 28.2148C73.3328 29.7624 74.5604 31.5998 75.398 33.6219C76.2356 35.644 76.6667 37.8112 76.6667 39.9999C76.6667 42.1886 76.2356 44.3559 75.398 46.378C74.5604 48.4001 73.3328 50.2374 71.7851 51.785C70.2375 53.3327 68.4002 54.5603 66.3781 55.3979C64.356 56.2355 62.1887 56.6666 60 56.6666H50M30 56.6666H20C17.8113 56.6666 15.644 56.2355 13.6219 55.3979C11.5998 54.5603 9.76253 53.3327 8.21488 51.785C5.08928 48.6594 3.33333 44.4202 3.33333 39.9999C3.33333 35.5796 5.08928 31.3404 8.21488 28.2148C11.3405 25.0892 15.5797 23.3333 20 23.3333H30" stroke="#141414" stroke-width="2" stroke-linecap="round" stroke-linejoin="round"/>
<path id="Vector_2" d="M26.6667 40H53.3333" stroke="#141414" stroke-width="2" stroke-linecap="round" stroke-linejoin="round"/>
</g>
</svg>
