<svg width="17" height="17" viewBox="0 0 17 17" fill="none" xmlns="http://www.w3.org/2000/svg">
<g id="magic wand">
<path id="Vector" d="M5.45883 4.31606C5.43987 4.54147 5.11187 4.59847 5.00637 4.39468L4.4383 3.29755C4.40156 3.22646 4.3267 3.17895 4.24205 3.1728L2.9348 3.07797C2.69196 3.06037 2.63057 2.75589 2.85011 2.65794L4.03191 2.13061C4.10844 2.09645 4.15973 2.02703 4.16628 1.94842L4.26845 0.734818C4.28741 0.509407 4.61541 0.452413 4.7209 0.656199L5.28897 1.75334C5.32571 1.82443 5.40048 1.87195 5.48523 1.87808L6.79247 1.97291C7.03531 1.99051 7.0967 2.29499 6.87716 2.39294L5.69536 2.92027C5.61874 2.95445 5.56755 3.02385 5.56099 3.10247L5.45883 4.31606Z" fill="white"/>
<path id="Vector_2" d="M1.70599 5.1442C1.67434 5.25336 1.50749 5.25336 1.47583 5.1442L1.30536 4.55649C1.29435 4.51841 1.26227 4.48867 1.22127 4.47842L0.588205 4.32018C0.470601 4.29079 0.470601 4.13591 0.588205 4.10652L1.22127 3.94828C1.26227 3.93802 1.29435 3.90828 1.30536 3.87021L1.47583 3.28249C1.50749 3.17333 1.67434 3.17333 1.70599 3.28249L1.87646 3.87021C1.88747 3.90828 1.91951 3.93802 1.96055 3.94828L2.59362 4.10652C2.71122 4.13591 2.71122 4.29079 2.59362 4.32018L1.96055 4.47842C1.91951 4.48867 1.88747 4.51841 1.87646 4.55649L1.70599 5.1442Z" fill="white"/>
<path id="Vector_3" d="M3.88781 8.51993C3.85615 8.6291 3.68931 8.6291 3.65765 8.51993L3.48718 7.93222C3.47617 7.89414 3.44409 7.8644 3.40309 7.85415L2.77002 7.69591C2.65242 7.66652 2.65242 7.51164 2.77002 7.48225L3.40309 7.32401C3.44409 7.31375 3.47617 7.28402 3.48718 7.24594L3.65765 6.65822C3.68931 6.54906 3.85615 6.54906 3.88781 6.65822L4.05828 7.24594C4.06929 7.28402 4.10132 7.31375 4.14237 7.32401L4.77544 7.48225C4.89304 7.51164 4.89304 7.66652 4.77544 7.69591L4.14237 7.85415C4.10132 7.8644 4.06929 7.89414 4.05828 7.93222L3.88781 8.51993Z" fill="white"/>
<path id="Vector_4" d="M2.03127 7.19694C2.01016 7.26972 1.89893 7.26972 1.87783 7.19694L1.76418 6.80513C1.75684 6.77975 1.73545 6.75992 1.70812 6.75309L1.28608 6.64759C1.20767 6.628 1.20767 6.52475 1.28608 6.50515L1.70812 6.39966C1.73545 6.39282 1.75684 6.373 1.76418 6.34761L1.87783 5.9558C1.89893 5.88303 2.01016 5.88303 2.03127 5.9558L2.14491 6.34761C2.15225 6.373 2.17361 6.39282 2.20097 6.39966L2.62302 6.50515C2.70142 6.52475 2.70142 6.628 2.62302 6.64759L2.20097 6.75309C2.17361 6.75992 2.15225 6.77975 2.14491 6.80513L2.03127 7.19694Z" fill="white"/>
<path id="Vector_5" d="M7.12218 5.84666C7.10107 5.91944 6.98984 5.91944 6.96874 5.84666L6.85509 5.45485C6.84775 5.42947 6.82636 5.40964 6.79903 5.40281L6.37699 5.29731C6.29858 5.27772 6.29858 5.17447 6.37699 5.15487L6.79903 5.04938C6.82636 5.04254 6.84775 5.02272 6.85509 4.99733L6.96874 4.60552C6.98984 4.53275 7.10107 4.53275 7.12218 4.60552L7.23582 4.99733C7.24316 5.02272 7.26452 5.04254 7.29188 5.04938L7.71393 5.15487C7.79233 5.17447 7.79233 5.27772 7.71393 5.29731L7.29188 5.40281C7.26452 5.40964 7.24316 5.42947 7.23582 5.45485L7.12218 5.84666Z" fill="white"/>
<path id="Vector 1" d="M14.3182 14.003L13.5909 14.6782M4.15778 5.04228L15.9624 15.0877C16.2555 15.3371 16.2654 15.7629 15.9843 16.0239V16.0239C15.7043 16.2839 15.2496 16.2777 14.9805 16.008C10.9047 11.9231 3.72842 4.70747 4.15778 5.04228Z" stroke="white"/>
</g>
</svg>
